<?xml version="1.0" encoding="UTF-8" standalone="no"?>
<!-- Created with Inkscape (http://www.inkscape.org/) -->

<svg
   width="210mm"
   height="297mm"
   viewBox="0 0 210 297"
   version="1.1"
   id="svg5"
   xml:space="preserve"
   xmlns="http://www.w3.org/2000/svg"
   xmlns:svg="http://www.w3.org/2000/svg"><defs
     id="defs2" /><g
     id="layer1"><path
       style="fill:#efefef;stroke-width:0.826007"
       d="M 78.283443,216.89185 C 62.113734,208.94984 50.28927,198.31198 43.7766,185.84787 39.276569,177.23558 38.306307,172.79702 38.306307,160.82324 v -10.62968 l 7.193811,5.0193 7.193843,5.0193 10.127512,-10.10322 c 6.592342,-6.57648 10.994001,-11.72884 12.60972,-14.76029 2.807731,-5.2678 4.971191,-13.46503 4.989329,-18.90416 0.01873,-5.56124 2.659034,-9.92334 10.697794,-17.672703 10.996314,-10.60048 14.348104,-10.581 25.428484,0.14767 7.97086,7.717923 9.75367,10.948073 10.55419,19.122643 0.77261,7.88928 2.86168,14.63338 6.07638,19.61615 1.39275,2.15881 6.73355,8.10576 11.86839,13.21547 l 9.3361,9.29033 6.78235,-4.5408 c 3.73029,-2.49744 6.97786,-4.5408 7.21688,-4.5408 0.23914,0 0.43454,4.84385 0.43454,10.76416 0,8.67467 -0.33152,11.76122 -1.70788,15.90067 -5.18161,15.58385 -19.70122,30.51627 -38.30076,39.38974 -9.57793,4.56943 -9.84064,4.49825 -4.26885,-1.15642 9.75085,-9.89593 14.48565,-22.04879 15.14741,-38.87891 l 0.4222,-10.73809 -6.28149,8.26007 c -6.68,8.78409 -11.2671,14.28344 -11.2671,13.50777 0,-0.25974 1.29022,-3.26444 2.86711,-6.67744 6.94571,-15.03312 5.17149,-28.71572 -5.02065,-38.71854 l -3.64384,-3.57616 -6.6004,6.56172 -6.60043,6.56168 -6.664115,-6.58869 -6.664115,-6.58869 -3.943298,4.25203 c -5.511315,5.94283 -7.67849,10.88583 -8.150462,18.58998 -0.444343,7.25319 0.64246,12.77012 4.042919,20.52341 l 2.354772,5.36905 -3.416131,-3.71702 c -1.878897,-2.04436 -5.628949,-6.69068 -8.333469,-10.3251 -2.70452,-3.63445 -5.110429,-6.79392 -5.346446,-7.02107 -0.236017,-0.22728 -0.249754,4.23329 -0.03122,9.9121 0.338478,8.77125 0.794778,11.49928 3.032041,18.1274 3.231656,9.57418 7.175735,16.21148 13.095054,22.03698 2.481365,2.44203 4.339813,4.44006 4.129895,4.44006 -0.209793,0 -4.432503,-1.98963 -9.383495,-4.42139 z m 23.433427,0.5759 c -8.821057,-14.26737 -12.19754,-19.97337 -12.194512,-20.60774 0.002,-0.40704 1.079217,-2.36139 2.393921,-4.34306 l 2.390392,-3.60301 -3.151173,-5.89609 c -5.022672,-9.39783 -6.893171,-18.12394 -5.222631,-24.36444 0.449713,-1.67997 0.892714,-1.14687 3.216984,3.87106 2.763493,5.96621 6.289453,11.5138 9.409155,14.80383 1.30453,1.37577 2.701214,1.85851 5.377144,1.85851 3.46723,0 3.77418,-0.21073 7.51749,-5.16256 3.94595,-5.21979 8.61507,-14.03628 8.63951,-16.31366 0.0125,-1.10132 0.1024,-1.10132 0.81401,0 0.44038,0.68145 0.80639,3.68983 0.81335,6.68525 0.0156,6.17666 -1.79716,12.21055 -5.87698,19.57535 l -2.71426,4.89973 2.57274,3.95507 2.57275,3.9551 -7.0804,11.64654 c -3.89419,6.40562 -7.17795,11.77464 -7.29724,11.93114 -0.11925,0.15641 -1.10041,-1.14446 -2.18025,-2.89102 z"
       id="path291" /></g></svg>
