<?xml version="1.0" encoding="UTF-8" standalone="no"?>
<!-- Created with Inkscape (http://www.inkscape.org/) -->

<svg
   width="210mm"
   height="297mm"
   viewBox="0 0 210 297"
   version="1.1"
   id="svg5"
   xml:space="preserve"
   xmlns="http://www.w3.org/2000/svg"
   xmlns:svg="http://www.w3.org/2000/svg"><defs
     id="defs2" /><g
     id="layer1"><path
       style="fill:#efefef;stroke-width:0.853275"
       d="m 99.654896,209.42939 c -2.339271,-2.15834 -7.46315,-7.01362 -11.386401,-10.78949 l -7.133171,-6.8652 3.628747,-12.94052 3.628714,-12.94055 -7.908713,-11.39434 c -4.349787,-6.26687 -8.064222,-11.79962 -8.254302,-12.29497 -0.622131,-1.62126 7.394426,-17.45207 8.83754,-17.45207 0.738488,0 6.50604,0.82324 12.816776,1.82943 l 11.474054,1.82943 -0.56079,3.07689 c -0.79528,4.36359 -2.36036,5.55945 -7.924547,6.055 -4.761423,0.42408 -4.884263,0.49938 -4.884263,2.99484 v 2.55983 l 9.38604,0.67428 c 13.49496,0.96946 14.8859,1.27012 15.84459,3.42483 0.45856,1.0306 2.90515,11.47318 5.43686,23.20572 l 4.60317,21.33189 -10.71663,10.2393 c -5.89414,5.63162 -11.14811,10.49596 -11.67553,10.80965 -0.52741,0.31379 -2.87287,-1.1956 -5.212144,-3.35395 z m 45.571344,-5.56915 -9.05142,-9.59367 -2.36062,-11.07225 c -1.29834,-6.08976 -2.55657,-11.65114 -2.79609,-12.35867 -0.23961,-0.70753 4.12794,3.21005 9.70548,8.70577 11.41372,11.24624 14.94068,13.29497 24.22843,14.07361 9.12714,0.76519 8.97337,2.0626 -1.4048,11.85361 -4.62894,4.36704 -8.60825,7.95025 -8.84289,7.9627 -0.23478,0.0129 -4.49979,-4.29458 -9.47809,-9.5711 z m -100.939012,0.006 c -7.616046,-7.13175 -8.35634,-8.0895 -7.495722,-9.69754 0.810502,-1.51445 1.959465,-1.84385 7.597374,-2.17819 4.005198,-0.23768 7.828153,-1.00216 9.628917,-1.92586 1.642546,-0.84259 8.074122,-6.55273 14.292366,-12.68919 6.218243,-6.1363 11.305906,-10.87537 11.305906,-10.53108 0,0.3443 -1.7233,6.42997 -3.829566,13.5237 l -3.829566,12.89775 -8.75627,9.04739 c -4.815926,4.97605 -9.140204,9.14169 -9.609535,9.25692 -0.469299,0.11513 -4.656064,-3.35143 -9.303904,-7.70374 z M 52.02405,157.24185 C 34.608227,140.50195 31.743575,114.94154 43.990369,85.56065 l 2.6916,-6.45734 1.063791,5.24088 c 1.393869,6.86721 4.518841,14.44604 8.314255,20.16405 3.0309,4.56628 11.393238,13.13347 14.504602,14.86 1.527866,0.84781 1.362199,1.50574 -3.08795,12.26192 l -4.702439,11.36605 5.48082,7.91597 c 5.354562,7.7336 5.420448,7.89494 2.859557,7.0022 -3.237235,-1.12851 -6.451152,-0.38403 -10.000371,2.31657 -1.493907,1.13671 -2.967045,2.06676 -3.273644,2.06676 -0.306695,0 -2.924024,-2.27487 -5.81654,-5.05522 z m 76.76654,3.13552 c -0.9943,-3.71018 -0.50378,-4.82473 3.33753,-7.58335 6.77826,-4.86778 7.44318,-6.71089 7.90523,-21.91257 l 0.40305,-13.26118 4.47644,-4.3704 c 7.59347,-7.41358 14.20658,-19.80911 15.46445,-28.9863 0.2925,-2.13442 0.83578,-3.88078 1.20721,-3.88078 0.37138,0 1.88084,3.1261 3.35426,6.9469 8.04184,20.85319 8.86305,39.91643 2.34731,54.48895 -4.11737,9.20848 -15.594,21.85482 -18.126,19.9734 -4.72992,-3.51462 -6.24369,-4.1878 -9.41697,-4.1878 -2.52213,0 -4.38733,0.6638 -6.59347,2.34649 -3.71247,2.83163 -3.71447,2.83183 -4.35904,0.42664 z m -4.55835,-17.14564 c -1.90548,-3.92199 -5.8675,-6.53274 -9.91394,-6.53274 h -2.15732 l 1.66551,-5.75962 c 0.91605,-3.1678 1.87549,-6.56377 2.13213,-7.54658 0.44808,-1.71604 -0.22994,-1.88394 -17.084717,-4.22943 l -17.551304,-2.44247 v -5.26543 c 0,-3.66851 0.39306,-5.59166 1.296022,-6.34105 1.057955,-0.87803 5.328408,-0.33865 23.251749,2.93673 12.07567,2.20676 22.81969,4.3634 23.87565,4.79255 1.88403,0.76571 1.91986,1.04828 1.91986,15.1446 v 14.36435 l -2.39319,2.29283 c -1.31628,1.26103 -2.58366,2.29283 -2.81644,2.29283 -0.23284,0 -1.23359,-1.66796 -2.22401,-3.70657 z m -23.91648,-48.22027 -2.765356,-2.36749 3.314666,-6.77056 3.31467,-6.77055 3.18631,6.79332 3.18634,6.79332 -2.8501,2.37939 c -3.48985,2.91345 -3.92023,2.91013 -7.38653,-0.0574 z M 74.651568,89.57743 c -0.969364,-3.85991 -1.637741,-7.14278 -1.485264,-7.29526 0.152542,-0.15254 3.212757,1.17535 6.800675,2.9507 6.322701,3.12858 6.507621,3.30712 6.009039,5.80202 -1.112714,5.5679 -1.105555,5.56058 -5.458632,5.56058 h -4.103334 z m 47.900582,3.22282 c -0.63693,-2.78355 -0.6199,-4.07738 0.0606,-4.59721 1.77745,-1.35775 12.46635,-6.02539 12.43127,-5.42848 -0.0194,0.32734 -0.70363,3.47495 -1.52084,6.99469 l -1.48581,6.39959 -4.29938,0.25251 -4.29938,0.25252 z"
       id="path125" /></g></svg>
