<?xml version="1.0" encoding="UTF-8" standalone="no"?>
<!-- Created with Inkscape (http://www.inkscape.org/) -->

<svg
   width="210mm"
   height="297mm"
   viewBox="0 0 210 297"
   version="1.1"
   id="svg5"
   xml:space="preserve"
   xmlns="http://www.w3.org/2000/svg"
   xmlns:svg="http://www.w3.org/2000/svg"><defs
     id="defs2" /><g
     id="layer1"><path
       style="fill:#efefef;stroke-width:0.910233"
       d="m 78.677361,212.83279 v -5.91655 h 6.541958 6.541925 l -2.67036,-2.78726 c -4.550328,-4.74952 -14.237678,-10.79343 -21.356876,-13.32446 -6.070987,-2.15838 -8.453192,-2.46264 -22.05263,-2.81654 -10.540396,-0.27419 -15.242677,-0.7155 -15.234248,-1.42949 0.0069,-0.56802 1.186269,-4.92401 2.621269,-9.67999 l 2.609056,-8.64722 11.259823,0.10252 c 22.526457,0.20538 34.461842,6.2087 51.010956,25.65788 l 4.105636,4.82513 6.13067,-7.10072 c 10.4332,-12.08404 19.737,-18.49709 31.51981,-21.72636 6.51901,-1.78663 27.66716,-2.86322 28.53885,-1.45282 0.34798,0.56307 1.64451,4.4111 2.88115,8.55114 1.23667,4.14 2.47389,8.24412 2.74938,9.12022 0.4612,1.46655 -0.53953,1.59291 -12.61318,1.59291 -14.57272,0 -23.04539,1.59242 -31.7503,5.96743 -5.22655,2.62678 -13.5713,8.9543 -15.23824,11.55459 -0.935,1.45849 -0.52124,1.5929 4.90309,1.5929 h 5.92422 v 5.91656 5.91652 H 101.88836 78.677361 Z M 90.405914,169.845 C 77.252338,153.05235 75.939811,150.75766 75.966645,144.60029 c 0.02408,-5.42015 1.622735,-9.18741 8.321844,-19.60516 2.73638,-4.25532 5.270925,-8.23442 5.632315,-8.84242 0.65995,-1.11027 -3.371792,0.28898 -8.640373,2.99866 -2.361289,1.21445 -2.436114,1.15954 -4.288039,-3.14539 -7.363938,-17.117958 -2.628631,-29.913681 13.860832,-37.454552 9.222216,-4.217479 9.864756,-4.148365 5.33976,0.574179 -4.67985,4.884201 -6.59281,8.882399 -6.59281,13.77957 0,4.784025 2.0946,7.513623 5.76563,7.513623 1.61242,0 3.81236,-0.616868 4.888776,-1.370808 2.3519,-1.64733 1.25311,-3.04122 15.78954,20.030618 5.77423,9.16474 10.80478,18.21888 11.41656,20.54783 1.16514,4.43576 0.61027,9.7331 -1.4231,13.58598 -1.34301,2.5448 -21.51364,28.60584 -23.26556,30.05976 -0.83309,0.69142 -4.003626,-2.75117 -12.366106,-13.42718 z m 14.082136,-8.13941 c 7.85156,-9.77552 8.94804,-11.64537 8.48863,-14.47625 -0.25355,-1.56274 -2.80171,-6.60736 -5.66249,-11.21028 -4.60017,-7.40154 -5.32751,-8.18042 -6.29254,-6.73816 -0.60012,0.89691 -3.005846,4.7372 -5.346046,8.53394 -5.81995,9.44222 -5.73684,11.49709 0.80333,19.85567 2.78207,3.55561 5.283126,6.46473 5.557976,6.46473 0.27487,0 1.37782,-1.09335 2.45114,-2.42965 z"
       id="path235" /></g></svg>
