<?xml version="1.0" encoding="UTF-8" standalone="no"?>
<!-- Created with Inkscape (http://www.inkscape.org/) -->

<svg
   width="210mm"
   height="297mm"
   viewBox="0 0 210 297"
   version="1.1"
   id="svg5"
   xml:space="preserve"
   xmlns="http://www.w3.org/2000/svg"
   xmlns:svg="http://www.w3.org/2000/svg"><defs
     id="defs2" /><g
     id="layer1"><path
       style="fill:#efefef;stroke-width:0.865225"
       d="m 84.572381,216.9558 c -0.20307,-0.64422 -0.59948,-3.73117 -0.88107,-6.85985 l -0.51201,-5.68855 5.53727,-7.72245 5.53728,-7.72248 -2.8104,-17.73711 c -1.54573,-9.75544 -3.09637,-19.02607 -3.44588,-20.60137 l -0.63546,-2.86422 -4.894851,0.59317 c -2.692147,0.32636 -5.061107,0.74318 -5.264346,0.9265 -0.203403,0.18313 0.700498,1.45018 2.008295,2.81524 1.609696,1.68017 2.931718,4.64396 4.092322,9.17449 0.94295,3.68088 1.51689,6.89013 1.27536,7.13163 -0.6659,0.6659 -8.090471,-3.90857 -11.836228,-7.29268 -1.823989,-1.64783 -4.373395,-4.66696 -5.665364,-6.70913 l -2.349044,-3.71303 -6.123676,1.9446 c -10.953877,3.47842 -19.511098,8.08628 -25.374993,13.66388 -3.651314,3.47306 -3.688103,1.95561 -0.173645,-7.15796 3.007717,-7.7993 13.28353,-23.66958 21.587903,-33.34117 l 5.623964,-6.54988 0.500561,3.56763 c 0.896511,6.38974 4.316168,7.12798 15.718808,3.39341 l 8.704084,-2.85077 3.11236,3.38658 c 1.71179,1.86261 4.72196,5.23913 6.68925,7.50338 l 3.57692,4.11682 6.250489,-7.36227 c 3.43777,-4.04926 6.71936,-7.36232 7.29239,-7.36232 0.57309,0 4.5218,1.185 8.77498,2.63336 5.3392,1.81817 8.60552,2.47527 10.55155,2.12265 3.46266,-0.62744 5.77694,-3.83194 5.15434,-7.13697 -0.40834,-2.16769 -0.0988,-1.99555 3.50314,1.94835 12.45534,13.63766 23.60699,32.1633 26.51173,44.04247 0.59308,2.42537 0.45426,2.36543 -4.0451,-1.74672 -5.42341,-4.95669 -12.81139,-9.09274 -21.55259,-12.06579 -7.87399,-2.67812 -9.03963,-2.64708 -10.55384,0.28091 -1.7424,3.36942 -9.93369,10.91355 -14.22916,13.10494 -4.27391,2.18037 -4.3438,1.98452 -2.33331,-6.54104 0.83513,-3.54137 2.14181,-6.29068 3.90671,-8.21968 l 2.65189,-2.89846 -4.9662,-0.64046 c -2.73146,-0.35229 -5.26441,-0.34231 -5.62887,0.0229 -0.64193,0.64192 -6.73833,36.21369 -6.75377,39.40751 -0.003,0.87146 2.38126,4.87249 5.30101,8.89114 l 5.30862,7.30668 -0.60393,6.66489 c -0.33218,3.66567 -0.72499,6.78588 -0.87293,6.93378 -0.14781,0.14781 -3.29536,-0.93323 -6.99432,-2.40264 l -6.725389,-2.67161 -5.71369,2.30104 c -3.14255,1.26558 -6.19713,2.49264 -6.78794,2.72678 -0.59085,0.23414 -1.24034,-0.10138 -1.44331,-0.74553 z m 8.41465,-99.22704 -5.35085,-6.7707 5.2685,-14.464578 c 2.89771,-7.955511 5.54202,-14.154989 5.87629,-13.7766 1.477579,1.672614 10.407959,28.053438 9.826009,29.026498 -0.65989,1.10332 -9.934999,12.76123 -10.150279,12.75789 -0.0654,-0.001 -2.52671,-3.04863 -5.46967,-6.77251 z M 65.168122,106.3379 c -3.259812,-9.744778 -3.35687,-10.316818 -1.590272,-9.372628 2.00581,1.07202 16.407925,9.472688 16.857767,9.833028 0.147156,0.11773 -0.367172,2.39757 -1.142916,5.06605 l -1.410447,4.85172 H 73.261047 68.63984 Z m 53.422448,8.04416 c -0.51534,-1.33359 -1.13739,-3.62208 -1.38232,-5.0855 -0.43206,-2.58126 -0.17855,-2.81916 8.48151,-7.96159 4.9098,-2.915468 9.033,-5.194728 9.16269,-5.065038 0.12982,0.12983 -1.25217,4.685758 -3.07077,10.124668 l -3.30651,9.88886 -4.47382,0.26161 c -4.20315,0.24591 -4.53046,0.11511 -5.41078,-2.16307 z"
       id="path263" /></g></svg>
