<?xml version="1.0" encoding="UTF-8" standalone="no"?>
<!-- Created with Inkscape (http://www.inkscape.org/) -->

<svg
   width="210mm"
   height="297mm"
   viewBox="0 0 210 297"
   version="1.1"
   id="svg5"
   xml:space="preserve"
   xmlns="http://www.w3.org/2000/svg"
   xmlns:svg="http://www.w3.org/2000/svg"><defs
     id="defs2" /><g
     id="layer1"><path
       style="fill:#efefef;stroke-width:1.07116"
       d="m 95.797837,226.54783 -4.56625,-8.56993 4.35994,-14.86606 4.35994,-14.86601 v -21.34988 -21.34984 l -8.09779,-20.28733 c -4.45374,-11.15805 -8.11285,-21.25138 -8.13135,-22.42969 -0.0202,-1.17828 2.47938,-8.062818 5.55072,-15.298968 l 5.58425,-13.156659 11.161893,0.302827 11.16193,0.302827 5.7389,13.049865 5.73886,13.049858 -8.46232,22.11525 -8.46232,22.11527 -0.004,21.60651 -0.004,21.60651 4.37371,14.71088 4.37375,14.71084 -4.57532,8.58693 -4.57621,8.58697 h -5.47879 -5.47878 z m 15.920053,-114.71162 3.4689,-9.20267 -2.40537,-6.597008 -2.40537,-6.59698 h -4.53321 -4.53318 l -2.285863,6.26917 c -1.25721,3.44806 -2.28581,6.617538 -2.28581,7.043278 0,0.42578 1.99473,5.8761 4.432773,12.11183 5.08308,13.00084 4.43512,13.18687 10.54713,-3.02762 z m -41.470112,73.50393 c -3.931732,-1.7238 -7.779013,-7.30193 -7.779013,-11.27869 0,-3.63991 3.681819,-9.41537 6.952109,-10.90541 3.353324,-1.5279 3.341745,-2.06935 -0.132386,-6.198 -4.428725,-5.26324 -10.489963,-7.86164 -16.923014,-7.25473 -2.990175,0.28218 -6.190345,0.83391 -7.111538,1.22624 -1.171026,0.49882 -3.043291,-0.90953 -6.224392,-4.68212 -4.522893,-5.36388 -4.535038,-5.40117 -2.074204,-6.3654 1.361426,-0.53347 4.644428,-1.94473 7.295542,-3.13612 l 4.820254,-2.16618 -9.348005,-0.0757 C 29.14398,134.41819 28.860667,134.21577 24.953469,123.93265 l -2.009023,-5.28729 8.243091,-3.29223 8.243131,-3.29223 -8.816681,-0.0636 c -8.587779,-0.0619 -8.83494,-0.13603 -9.518244,-2.85856 -2.099061,-8.36337 2.210354,-26.153008 9.053437,-37.373516 l 3.919627,-6.426979 0.692454,6.962553 c 1.545875,15.543334 7.042875,27.353824 18.196507,39.095702 6.976318,7.34425 17.76672,15.3199 23.861641,17.63717 2.264442,0.86095 2.817952,2.62715 5.945328,18.97162 4.46545,23.33752 5.00701,28.68586 3.2392,31.98911 -2.88475,5.39016 -10.083819,7.83257 -15.75624,5.34558 z m 63.186612,0.8399 c -4.31581,-0.86718 -8.84619,-6.45641 -8.84619,-10.91375 0,-4.18149 7.03425,-43.50531 8.0869,-45.20855 0.33481,-0.54181 1.14248,-0.98512 1.79465,-0.98512 3.01864,0 17.31588,-10.36859 23.97205,-17.38491 11.28047,-11.890738 16.94941,-23.971438 18.48253,-39.38675 l 0.6925,-6.962554 3.91962,6.426979 c 6.84309,11.220517 11.1525,29.010145 9.0534,37.373515 -0.6833,2.72253 -0.93042,2.79674 -9.5182,2.85856 l -8.81669,0.0636 8.2086,3.27875 8.20856,3.27875 -1.55381,4.42371 c -0.8546,2.43306 -3.08374,6.95433 -4.95361,10.0473 l -3.3998,5.62362 -8.0752,0.0615 -8.0752,0.0615 5.76092,2.61617 5.76088,2.61618 -2.71958,3.48129 c -1.66554,2.13206 -3.4832,3.35228 -4.68977,3.14839 -9.28355,-1.56891 -13.02488,-1.41551 -17.18029,0.7044 -3.93862,2.00931 -9.97212,7.83897 -9.9554,9.61897 0.003,0.39675 1.46984,1.55381 3.25802,2.57148 1.8181,1.03467 3.99914,3.63154 4.94802,5.89136 1.47827,3.52065 1.50701,4.58055 0.22308,8.22876 -2.21003,6.28071 -8.18998,9.75181 -14.58619,8.46657 z"
       id="path207" /></g></svg>
