<?xml version="1.0" encoding="UTF-8" standalone="no"?>
<!-- Created with Inkscape (http://www.inkscape.org/) -->

<svg
   width="210mm"
   height="297mm"
   viewBox="0 0 210 297"
   version="1.1"
   id="svg5"
   xml:space="preserve"
   xmlns="http://www.w3.org/2000/svg"
   xmlns:svg="http://www.w3.org/2000/svg"><defs
     id="defs2" /><g
     id="layer1"><path
       style="fill:#efefef;stroke-width:0.905306"
       d="M 90.266091,221.34542 C 88.410917,220.4871 75.557077,210.07077 61.702,198.19794 L 36.510998,176.61104 31.67745,139.55606 c -2.65845,-20.38023 -4.674274,-37.17414 -4.479607,-37.31984 0.718108,-0.53736 48.52905,-18.711572 52.881708,-20.101742 6.698358,-2.13934 23.888529,-2.70155 31.705009,-1.03693 3.50704,0.74684 17.96932,5.81934 32.1384,11.27216 24.2827,9.344952 25.74904,10.038762 25.53673,12.083012 -0.12386,1.19285 -2.26231,17.84361 -4.75203,37.0017 -4.13405,31.81074 -4.70358,35.00032 -6.56454,36.76249 -7.50241,7.1041 -47.71702,40.80988 -50.78109,42.56202 -4.60445,2.63302 -12.092828,2.88116 -17.095939,0.56649 z m -0.700784,-28.26709 v -14.48494 h -5.884523 -5.884488 v -7.24243 -7.24246 h 20.36942 20.369384 v 7.24246 7.24243 h -5.88449 -5.88449 v 14.56035 c 0,8.47891 0.34791,14.43432 0.83296,14.25859 0.45812,-0.16595 9.4616,-7.63476 20.00776,-16.59728 10.54615,-8.96255 20.01066,-16.95514 21.03222,-17.76131 1.63243,-1.28828 2.38043,-5.23602 6.17536,-32.59105 2.37489,-17.1189 4.04427,-31.3998 3.70973,-31.73536 -1.06491,-1.0683 -42.9697,-16.890782 -47.68417,-18.004692 -5.79361,-1.36893 -19.624796,-1.37991 -24.895923,-0.0205 -2.240621,0.57815 -13.950438,4.80376 -26.021785,9.390222 -18.776171,7.13393 -21.948773,8.6067 -21.953703,10.19106 -0.0092,3.01781 8.024596,60.14442 8.586174,61.05307 0.620397,1.00383 42.057571,36.22601 42.618103,36.22601 0.215905,0 0.392461,-6.51821 0.392461,-14.4849 z M 70.716768,157.38188 c -4.142706,-1.13592 -8.1015,-2.63459 -8.797289,-3.33041 -0.695823,-0.69579 -2.750889,-8.09144 -4.566818,-16.43472 -2.826028,-12.9842 -3.12371,-15.38537 -2.066392,-16.66701 0.982385,-1.19076 22.581881,-12.06494 23.964768,-12.06494 0.195717,0 0.355884,1.83324 0.355884,4.07386 v 4.0739 h 18.558795 18.558794 v -4.0739 c 0,-2.24062 0.22754,-4.07386 0.50561,-4.07386 0.8719,0 22.81592,15.46115 24.35018,17.15647 1.34953,1.49118 1.21235,2.55941 -1.82103,14.18177 -1.80426,6.91303 -3.79527,13.10595 -4.42451,13.76205 -0.92439,0.9639 -16.27523,5.51026 -18.83659,5.57873 -0.37344,0.0103 -0.67899,-1.81511 -0.67899,-4.05573 v -4.0739 H 98.618363 81.417546 v 4.0739 c 0,4.83596 0.06262,4.82501 -10.700778,1.87379 z m 17.068024,-50.9867 c 0.01711,-0.37344 2.391276,-3.29157 5.277115,-6.484742 l 5.247038,-5.80576 3.759865,4.07893 c 2.06792,2.243422 4.61143,5.161562 5.65225,6.484782 l 1.89241,2.40578 H 98.684059 c -6.011157,0 -10.915827,-0.30555 -10.899267,-0.67899 z"
       id="path319" /></g></svg>
